<svg width="24" height="24" viewBox="0 0 24 24" fill="none" xmlns="http://www.w3.org/2000/svg">
  <path fill="currentColor" fill-rule="evenodd" clip-rule="evenodd" d="M5.08185 1.07943C5.47437 0.392519 6.16128 0 6.94632 0C7.33883 0 7.73135 0.0981298 8.12387 0.294389C9.2033 0.883168 9.59582 2.25699 9.00704 3.33641C8.61452 4.02332 7.92761 4.41584 7.14258 4.41584C6.75006 4.41584 6.35754 4.31771 5.96502 4.12145C4.78746 3.53267 4.39494 2.15886 5.08185 1.07943ZM7.43696 1.57008C7.24071 1.47195 7.14258 1.47195 6.94632 1.47195C6.65193 1.47195 6.45567 1.57008 6.35754 1.86447C6.20352 2.01848 6.2308 2.1725 6.24968 2.27909C6.25486 2.30832 6.25941 2.33399 6.25941 2.35512C6.25941 2.55137 6.45567 2.74763 6.65193 2.94389C6.84819 3.04202 6.94632 3.04202 7.14258 3.04202C7.43696 3.04202 7.63322 2.94389 7.73135 2.6495C7.88537 2.49549 7.85809 2.34148 7.83921 2.23488C7.83403 2.20565 7.82948 2.17998 7.82948 2.15886C7.73135 1.9626 7.63322 1.76634 7.43696 1.57008ZM5.67063 11.5793C5.67063 8.14477 8.51639 5.29901 11.9509 5.29901C15.3855 5.29901 18.2312 8.14477 18.2312 11.5793C18.2312 15.0139 15.3855 17.8596 11.9509 17.8596C8.51639 17.8596 5.67063 15.0139 5.67063 11.5793ZM16.7593 11.5793C16.7593 8.92981 14.6004 6.77096 11.9509 6.77096C9.30143 6.77096 7.14258 8.83168 7.14258 11.5793C7.14258 14.327 9.30143 16.4858 11.9509 16.4858C14.6004 16.4858 16.7593 14.2288 16.7593 11.5793ZM19.8013 10.8924C20.1938 10.2055 20.8807 9.81298 21.6658 9.81298C22.0583 9.81298 22.4508 9.91111 22.8433 10.1074C23.9228 10.6961 24.3153 12.07 23.7265 13.1494C23.334 13.8363 22.6471 14.2288 21.862 14.2288C21.4695 14.2288 21.077 14.1307 20.6845 13.9344C19.6051 13.3457 19.2125 11.9718 19.8013 10.8924ZM22.1564 11.3831C21.9602 11.2849 21.862 11.2849 21.6658 11.2849C21.3714 11.2849 21.1751 11.3831 20.9789 11.4812C20.7826 11.8737 20.9789 12.3644 21.3714 12.5606C21.5677 12.6587 21.6658 12.6587 21.862 12.6587C22.0583 12.6587 22.3527 12.5606 22.4508 12.3644C22.6048 12.2103 22.5776 12.0563 22.5587 11.9497C22.5535 11.9205 22.549 11.8948 22.549 11.8737C22.549 11.6774 22.3527 11.4812 22.1564 11.3831ZM2.13796 9.81298C1.35292 9.81298 0.666009 10.2055 0.27349 10.8924C-0.315289 11.9718 0.07723 13.3457 1.15666 13.9344C1.54918 14.1307 1.9417 14.2288 2.33422 14.2288C3.11925 14.2288 3.80616 13.8363 4.19868 13.1494C4.78746 12.07 4.39494 10.6961 3.31551 10.1074C3.02112 9.91111 2.53047 9.81298 2.13796 9.81298ZM2.13796 11.2849C2.33422 11.2849 2.43235 11.2849 2.6286 11.3831C2.82486 11.4812 3.02112 11.6774 3.02112 11.8737C3.02112 11.8948 3.02567 11.9205 3.03085 11.9497C3.04973 12.0563 3.07701 12.2103 2.92299 12.3644C2.82486 12.5606 2.53047 12.6587 2.33422 12.6587C2.13796 12.6587 2.03983 12.6587 1.84357 12.5606C1.45105 12.3644 1.25479 11.8737 1.45105 11.4812C1.64731 11.3831 1.84357 11.2849 2.13796 11.2849ZM5.08185 19.7241C5.47437 19.0372 6.16128 18.6447 6.94632 18.6447C7.33884 18.6447 7.73135 18.7428 8.12387 18.9391C9.2033 19.5278 9.59582 20.9016 9.00704 21.9811C8.61452 22.668 7.92761 23.0605 7.14258 23.0605C6.75006 23.0605 6.35754 22.9624 5.96502 22.7661C4.88559 22.1773 4.49307 20.8035 5.08185 19.7241ZM7.43696 20.2147C7.24071 20.1166 7.14258 20.1166 6.94632 20.1166C6.65193 20.1166 6.45567 20.2147 6.35754 20.411C6.20352 20.565 6.2308 20.719 6.24968 20.8256C6.25486 20.8549 6.25941 20.8805 6.25941 20.9016C6.25941 21.0979 6.45567 21.2942 6.65193 21.3923C6.84819 21.4904 6.94632 21.4904 7.14258 21.4904C7.33884 21.4904 7.63322 21.3923 7.73135 21.196C7.88537 21.042 7.85809 20.888 7.83921 20.7814C7.83403 20.7522 7.82948 20.7265 7.82948 20.7054C7.82948 20.5091 7.63322 20.3129 7.43696 20.2147ZM16.7593 18.6447C15.9743 18.6447 15.2873 19.0372 14.8948 19.7241C14.3061 20.8035 14.6986 22.1773 15.778 22.7661C16.1705 22.9624 16.563 23.0605 16.9556 23.0605C17.7406 23.0605 18.4275 22.668 18.82 21.9811C19.4088 20.9016 19.0163 19.5278 17.9369 18.9391C17.5443 18.7428 17.1518 18.6447 16.7593 18.6447ZM16.7593 20.1166C16.9556 20.1166 17.0537 20.1166 17.2499 20.2147C17.4462 20.3129 17.6425 20.5091 17.6425 20.7054C17.6425 20.7265 17.647 20.7521 17.6522 20.7813L17.6522 20.7814L17.6522 20.7814C17.6711 20.888 17.6983 21.042 17.5443 21.196C17.4462 21.3923 17.1518 21.4904 16.9556 21.4904C16.7593 21.4904 16.6612 21.4904 16.4649 21.3923C16.2686 21.2942 16.0724 21.0979 16.0724 20.9016C16.0724 20.8805 16.0678 20.8549 16.0627 20.8256C16.0438 20.719 16.0165 20.565 16.1705 20.411C16.2686 20.2147 16.4649 20.1166 16.7593 20.1166ZM16.7593 0C15.9743 0 15.2873 0.392519 14.8948 1.07943C14.3061 2.15886 14.6986 3.53267 15.778 4.12145C16.1705 4.31771 16.563 4.41584 16.9556 4.41584C17.7406 4.41584 18.4275 4.02332 18.82 3.33641C19.4088 2.25699 19.0163 0.883168 17.9369 0.294389C17.5443 0.0981298 17.1518 0 16.7593 0ZM16.7593 1.47195C16.9556 1.47195 17.0537 1.47195 17.2499 1.57008C17.4462 1.66821 17.6425 1.86447 17.6425 2.06073C17.6425 2.08185 17.647 2.10752 17.6522 2.13675C17.6711 2.24335 17.6983 2.39736 17.5443 2.55137C17.4462 2.74763 17.1518 2.84576 16.9556 2.84576C16.7593 2.84576 16.6612 2.84576 16.4649 2.74763C16.2686 2.6495 16.0724 2.45324 16.0724 2.25699C16.0724 2.23586 16.0678 2.21019 16.0627 2.18096C16.0438 2.07437 16.0165 1.92035 16.1705 1.76634C16.2686 1.57008 16.4649 1.47195 16.7593 1.47195Z" />
</svg>