<svg width="24" height="24" viewBox="0 0 24 24" fill="none" xmlns="http://www.w3.org/2000/svg">
  <path fill="currentColor" fill-rule="evenodd" clip-rule="evenodd" d="M1.5 9.35123C1.5 5.01512 5.01512 1.5 9.35123 1.5C13.6874 1.5 17.2025 5.01512 17.2025 9.35123C17.2025 11.5073 16.3334 13.4603 14.9265 14.8792C14.9185 14.8866 14.9105 14.8942 14.9028 14.9019C14.8949 14.9098 14.8873 14.9177 14.8799 14.9258C13.461 16.3331 11.5076 17.2025 9.35123 17.2025C5.01512 17.2025 1.5 13.6874 1.5 9.35123ZM15.4124 16.4724C13.7801 17.8631 11.6637 18.7025 9.35123 18.7025C4.18669 18.7025 0 14.5158 0 9.35123C0 4.18669 4.18669 0 9.35123 0C14.5158 0 18.7025 4.18669 18.7025 9.35123C18.7025 11.6633 17.8634 13.7794 16.473 15.4117L23.776 22.7152C24.0689 23.0081 24.0688 23.483 23.7759 23.7759C23.483 24.0687 23.0082 24.0687 22.7153 23.7758L15.4124 16.4724Z" />
</svg>
